<?xml version="1.0" encoding="utf-8"?>
<!-- Generator: Adobe Illustrator 19.2.1, SVG Export Plug-In . SVG Version: 6.00 Build 0)  -->
<!DOCTYPE svg PUBLIC "-//W3C//DTD SVG 1.1//EN" "http://www.w3.org/Graphics/SVG/1.1/DTD/svg11.dtd">
<svg version="1.1" id="Layer_1" xmlns="http://www.w3.org/2000/svg" xmlns:xlink="http://www.w3.org/1999/xlink" x="0px" y="0px"
	 width="957.2px" height="257.5px" viewBox="0 0 957.2 257.5" enable-background="new 0 0 957.2 257.5" xml:space="preserve">
<linearGradient id="SVGID_1_" gradientUnits="userSpaceOnUse" x1="0" y1="112.439" x2="750.6505" y2="112.439">
	<stop  offset="0.2232" style="stop-color:#D7DF23"/>
	<stop  offset="0.2987" style="stop-color:#CDDD2D"/>
	<stop  offset="0.4283" style="stop-color:#B1D647"/>
	<stop  offset="0.5963" style="stop-color:#85CC71"/>
	<stop  offset="0.7962" style="stop-color:#47BEAC"/>
	<stop  offset="1" style="stop-color:#00AEEF"/>
</linearGradient>
<path fill="url(#SVGID_1_)" d="M723.3,85.1c-8,0-15.1,3.6-20.1,9.1C592.1,96.9,0,112.4,0,112.4s592.1,15.6,703.2,18.3
	c5,5.5,12.1,9.1,20.1,9.1c15.1,0,27.4-12.3,27.4-27.4S738.4,85.1,723.3,85.1z"/>
<g>
	<g>
		<path fill="#325FAC" d="M165.1,105.4h-55.4v69.6h-29V0h84.4c41.1,0,59.6,24.2,59.6,52.7S206.2,105.4,165.1,105.4z M164,26.6h-54.3
			v52.2H164c19.5,0,31.6-9.5,31.6-26.1C195.7,36.1,183.6,26.6,164,26.6z"/>
		<path fill="#325FAC" d="M313,139.2h30.3c-9,24.3-32.4,39.3-59.3,39.3c-37.7,0-65.6-27.4-65.6-65.1c0-36.9,26.6-64.8,64.3-64.8
			c36.6,0,62.5,27.9,62.5,63.8c0,3.7,0,7.4-0.5,11.1h-97.3c3.2,17.4,18.2,29.3,36.6,29.3C296.4,152.6,307,148.4,313,139.2z
			 M247.9,101h67.7c-2.6-16.3-15.3-27.4-33-27.4C264.8,73.6,250.3,84.6,247.9,101z"/>
		<path fill="#325FAC" d="M386.1,51.9v15c6.1-9,19.5-16.1,37.7-16.1h11.3v26.6h-11.3c-24,0-37.7,15.3-37.7,38v59.6h-27.9V51.9H386.1
			z"/>
		<path fill="#325FAC" d="M611.5,21.1v30.8H650v24.5h-38.5v55.6c0,11.9,6.1,18.5,18.7,18.5H650v24.5h-20c-30.8,0-46.4-15-46.4-38.2
			V76.5h-22.7V51.9h22.7V21.1H611.5z"/>
		<path fill="#325FAC" d="M789.5,113.6c0,36.9-28.2,64.9-65.6,64.9c-37.7,0-65.9-27.9-65.9-64.9c0-37.4,28.2-65.1,65.9-65.1
			C761.3,48.5,789.5,76.2,789.5,113.6z M761.6,113.6c0-22.7-15.8-39.3-37.7-39.3c-21.9,0-38,16.6-38,39.3c0,22.1,16.1,39,38,39
			C745.7,152.6,761.6,135.8,761.6,113.6z"/>
		<path fill="#325FAC" d="M923.7,101.8v73.3h-27.9v-69.3c0-19-10.3-31.4-30.8-31.4c-18.2,0-34.8,14-34.8,37.4v63.3h-27.9V51.9h27.9
			v11.3c7.4-8.7,21.6-14.8,39.3-14.8C902.4,48.5,923.7,69.6,923.7,101.8z"/>
	</g>
	<path fill="#325FAC" d="M496,50.9h-45.8l0.4,26.4h46c17.9,0,32.7,3.4,32.7,20.2h-34.5c-28.7,0-56.2,9.2-56.2,39.5
		c0,27.2,19.8,41.4,49.3,41.4c17.4,0,32.2-5,41.4-14.8v11.3h27.9V97.5C557.2,66.2,532.4,51.4,496,50.9z M529.2,126.5
		c0,17.7-15.8,28.2-36.9,28.2c-16.1,0-25.8-6.6-25.8-17.7c0-11.9,10.5-17.1,27.9-17.1h34.8V126.5z"/>
</g>
<g>
	<path fill="#325FAC" d="M941.1,54.8v2.5h-3.7v10.6h-2.8V57.3h-3.7v-2.5H941.1z"/>
	<path fill="#325FAC" d="M954.7,54.8h2.5v13.1h-2.8v-8.7l-4.2,5.4l-4.2-5.3v8.7h-2.8V54.8h2.5l4.5,5.7L954.7,54.8z"/>
</g>
<g>
	<path fill="#325FAC" d="M364.3,245.8h-6.1l15.8-36.1h6.1l15.8,36.1h-6.4l-3.6-8.2h-18L364.3,245.8z M376.9,217.1l-6.6,15.1h13.2
		L376.9,217.1z"/>
	<path fill="#325FAC" d="M423.1,209.4v36.4h-5.8v-2.3c-1.8,1.9-4.8,3-8,3c-8.3,0-12.9-6.4-12.9-13.4c0-7,4.7-13.4,12.9-13.4
		c3.2,0,6.2,1.1,8,3v-13.3H423.1z M409.7,225c-4.5,0-7.6,3.7-7.6,8.1c0,4.3,3.1,8,7.6,8c4,0,7.8-2.7,7.8-8
		C417.6,227.7,413.7,225,409.7,225z"/>
	<path fill="#325FAC" d="M442.7,245.8h-5.5l-11.6-25.4h6.4l8.2,17.8l8.1-17.8h6.1L442.7,245.8z"/>
	<path fill="#325FAC" d="M479.5,229.8v16h-5.8v-2.3c-1.9,2-4.9,3-8.5,3c-6.1,0-10.2-2.9-10.2-8.5c0-6.2,5.7-8.2,11.6-8.2h7.1
		c0-3.5-3-4.8-6.7-4.8c-2.9,0-5.5,0.9-6.5,3.3h-6.1c1.5-5.7,6.7-8.6,12.6-8.6C474.4,219.7,479.5,223.3,479.5,229.8z M473.8,234.4
		h-7.2c-3.6,0-5.8,1.1-5.8,3.5c0,2.3,2,3.6,5.3,3.6c4.3,0,7.6-2.2,7.6-5.8V234.4z"/>
	<path fill="#325FAC" d="M510.1,230.7v15.1h-5.8v-14.3c0-3.9-2.1-6.5-6.4-6.5c-3.7,0-7.2,2.9-7.2,7.7v13h-5.8v-25.4h5.8v2.3
		c1.5-1.8,4.5-3,8.1-3C505.7,219.7,510.1,224,510.1,230.7z"/>
	<path fill="#325FAC" d="M533.7,228.3c-1.3-2.1-3.6-3.3-6.2-3.3c-4.5,0-7.7,3.4-7.7,8c0,4.6,3.2,8.1,7.7,8.1c2.6,0,4.9-1.1,6.2-3.3
		h6c-1.8,5.3-6.6,8.6-12.2,8.6c-7.6,0-13.4-5.7-13.4-13.4c0-7.7,5.8-13.4,13.4-13.4c5.7,0,10.4,3.3,12.2,8.6H533.7z"/>
	<path fill="#325FAC" d="M543.8,208.9h6.5v6.6h-6.5V208.9z M549.9,220.4v25.4h-5.8v-25.4H549.9z"/>
	<path fill="#325FAC" d="M581.1,230.7v15.1h-5.8v-14.3c0-3.9-2.1-6.5-6.4-6.5c-3.7,0-7.2,2.9-7.2,7.7v13h-5.8v-25.4h5.8v2.3
		c1.5-1.8,4.5-3,8.1-3C576.7,219.7,581.1,224,581.1,230.7z"/>
	<path fill="#325FAC" d="M611.7,220.4v24.1c0,8-4.9,13.1-13.3,13.1c-5.9,0-11.1-3.2-12.9-8.7h6.3c1.1,2.1,3.4,3.4,6.6,3.4
		c4.7,0,7.5-3.2,7.5-7.7v-1.1c-1.8,1.9-4.8,3-8,3c-8.3,0-12.9-6.4-12.9-13.4c0-7,4.7-13.4,12.9-13.4c3.2,0,6.2,1.1,8,3v-2.3H611.7z
		 M598.3,225c-4.5,0-7.6,3.7-7.6,8c0,4.4,3.1,8.1,7.6,8.1c4,0,7.8-2.7,7.8-8.1C606.1,227.7,602.3,225,598.3,225z"/>
	<path fill="#325FAC" d="M650.6,209.7h6.5l-13.8,23v13h-6v-13l-13.9-23h6.6l10.3,17.2L650.6,209.7z"/>
	<path fill="#325FAC" d="M678.8,233.1c0,7.6-5.8,13.4-13.5,13.4c-7.8,0-13.6-5.8-13.6-13.4c0-7.7,5.8-13.4,13.6-13.4
		C673,219.7,678.8,225.4,678.8,233.1z M673,233.1c0-4.7-3.3-8.1-7.8-8.1s-7.8,3.4-7.8,8.1c0,4.6,3.3,8,7.8,8S673,237.7,673,233.1z"
		/>
	<path fill="#325FAC" d="M682.8,235.5v-15.1h5.8v14.3c0,3.9,2.1,6.5,6.2,6.5c3.6,0,7-2.9,7-7.7v-13h5.8v25.4h-5.8v-2.3
		c-1.5,1.8-4.3,3-7.9,3C687.2,246.5,682.8,242.1,682.8,235.5z"/>
	<path fill="#325FAC" d="M719.4,220.4v3.1c1.2-1.8,4-3.3,7.8-3.3h2.3v5.5h-2.3c-4.9,0-7.8,3.2-7.8,7.8v12.3h-5.8v-25.4H719.4z"/>
	<path fill="#325FAC" d="M765,245.8l-15.5-26.5v26.5h-6v-36.1h7.1l14.5,25.1l14.6-25.1h6.8v36.1h-6v-26.5L765,245.8z"/>
	<path fill="#325FAC" d="M792.5,208.9h6.5v6.6h-6.5V208.9z M798.7,220.4v25.4h-5.8v-25.4H798.7z"/>
	<path fill="#325FAC" d="M821.6,227.7c-1.1-2.1-3.5-3-6.9-3c-3.3,0-5.4,1.1-5.4,3c0,1.7,1.7,2.4,4.7,2.7l4.8,0.4
		c5.5,0.4,8.7,2.8,8.7,7.6c0,4.6-4.3,8.2-11.6,8.2c-7.4,0-12.1-3.4-13.2-8.4h6.3c0.9,2.3,3.5,3.4,7.5,3.4c2.9,0,5.2-1,5.2-2.9
		c0-1.8-1.6-2.6-4.6-2.8l-5.2-0.5c-5.6-0.5-8.5-2.9-8.5-7.4c0-4.7,4.3-8.2,11.2-8.2c7.6,0,11.7,3.5,13,8H821.6z"/>
	<path fill="#325FAC" d="M848.3,227.7c-1.1-2.1-3.5-3-6.9-3c-3.3,0-5.4,1.1-5.4,3c0,1.7,1.7,2.4,4.7,2.7l4.8,0.4
		c5.5,0.4,8.7,2.8,8.7,7.6c0,4.6-4.3,8.2-11.6,8.2c-7.4,0-12.1-3.4-13.2-8.4h6.3c0.9,2.3,3.5,3.4,7.5,3.4c2.9,0,5.2-1,5.2-2.9
		c0-1.8-1.6-2.6-4.6-2.8l-5.2-0.5c-5.6-0.5-8.5-2.9-8.5-7.4c0-4.7,4.3-8.2,11.2-8.2c7.6,0,11.7,3.5,13,8H848.3z"/>
	<path fill="#325FAC" d="M858.1,208.9h6.5v6.6h-6.5V208.9z M864.2,220.4v25.4h-5.8v-25.4H864.2z"/>
	<path fill="#325FAC" d="M895.9,233.1c0,7.6-5.8,13.4-13.5,13.4c-7.8,0-13.6-5.8-13.6-13.4c0-7.7,5.8-13.4,13.6-13.4
		C890.1,219.7,895.9,225.4,895.9,233.1z M890.2,233.1c0-4.7-3.3-8.1-7.8-8.1s-7.8,3.4-7.8,8.1c0,4.6,3.3,8,7.8,8
		S890.2,237.7,890.2,233.1z"/>
	<path fill="#325FAC" d="M925.6,230.7v15.1h-5.8v-14.3c0-3.9-2.1-6.5-6.4-6.5c-3.7,0-7.2,2.9-7.2,7.7v13h-5.8v-25.4h5.8v2.3
		c1.5-1.8,4.5-3,8.1-3C921.2,219.7,925.6,224,925.6,230.7z"/>
</g>
</svg>
